# Blender v3.2.0 OBJ File: ''
# www.blender.org
o Cube.019_Cube.001
v -4.301895 0.009196 -15.663387
v -4.301895 0.010906 -15.663387
v -4.301895 0.009196 14.978643
v -4.301895 0.010906 14.978643
v -9.268898 0.009196 -15.663387
v -9.268898 0.010906 -15.663387
v -9.268898 0.009196 14.978643
v -9.268898 0.010906 14.978643
v -6.851741 0.010906 -15.663387
v -6.927485 0.009196 14.978643
v -6.851741 0.010906 14.978643
v -6.927485 0.009196 -15.663387
v -6.682193 0.010906 14.978643
v -6.622857 0.009196 -15.663387
v -6.682193 0.010906 -15.663387
v -6.622857 0.009196 14.978643
v -4.442675 0.010906 14.978643
v -4.442675 0.009196 -15.663387
v -4.442675 0.010906 -15.663387
v -4.442675 0.009196 14.978643
v -9.104211 0.010906 -15.663387
v -9.104211 0.009196 14.978643
v -9.104211 0.010906 14.978643
v -9.104211 0.009196 -15.663387
v -9.268898 0.010906 -9.732818
v -4.301895 0.009196 -9.732818
v -9.268898 0.009196 -9.732818
v -4.301895 0.010906 -9.732818
v -6.851741 0.010906 -9.732818
v -6.927485 0.009196 -9.732818
v -6.622857 0.009196 -9.732818
v -6.682193 0.010906 -9.732818
v -4.442675 0.009196 -9.732818
v -4.442675 0.010906 -9.732818
v -9.104211 0.010906 -9.732818
v -9.104211 0.009196 -9.732818
v -9.268898 0.010906 -5.144619
v -4.301895 0.009196 -5.144619
v -6.851741 0.010906 -5.144619
v -6.927485 0.009196 -5.144619
v -6.622857 0.009196 -5.144619
v -6.682193 0.010906 -5.144619
v -4.442675 0.009196 -5.144619
v -4.442675 0.010906 -5.144619
v -9.104211 0.010906 -5.144619
v -9.104211 0.009196 -5.144619
v -9.268898 0.009196 -5.144619
v -4.301895 0.010906 -5.144619
v -9.268898 0.010906 0.465303
v -4.301895 0.009196 0.465303
v -6.851741 0.010906 0.465303
v -6.927485 0.009196 0.465303
v -6.622857 0.009196 0.465303
v -6.682193 0.010906 0.465303
v -4.442675 0.009196 0.465303
v -4.442675 0.010906 0.465303
v -9.104211 0.010906 0.465303
v -9.104211 0.009196 0.465303
v -9.268898 0.009196 0.465303
v -4.301895 0.010906 0.465303
v -9.268898 0.010906 5.562877
v -4.301895 0.009196 5.562877
v -6.851741 0.010906 5.562877
v -6.927485 0.009196 5.562877
v -6.622857 0.009196 5.562877
v -6.682193 0.010906 5.562877
v -4.442675 0.009196 5.562877
v -4.442675 0.010906 5.562877
v -9.104211 0.010906 5.562877
v -9.104211 0.009196 5.562877
v -9.268898 0.009196 5.562877
v -4.301895 0.010906 5.562877
v -9.268898 0.010906 10.270761
v -4.301895 0.009196 10.270761
v -6.851741 0.010906 10.270761
v -6.927485 0.009196 10.270761
v -6.622857 0.009196 10.270761
v -6.682193 0.010906 10.270761
v -4.442675 0.009196 10.270761
v -4.442675 0.010906 10.270761
v -9.104211 0.010906 10.270761
v -9.104211 0.009196 10.270761
v -9.268898 0.009196 10.270761
v -4.301895 0.010906 10.270761
vt 0.875000 0.711590
vt 0.866711 0.711590
vt 0.866711 0.750000
vt 0.625000 0.991711
vt 0.375000 0.991711
vt 0.375000 1.000000
vt 0.625000 0.201614
vt 0.375000 0.201614
vt 0.375000 0.250000
vt 0.625000 0.711590
vt 0.375000 0.711590
vt 0.375000 0.750000
vt 0.625000 0.492914
vt 0.375000 0.492914
vt 0.375000 0.500000
vt 0.375000 0.258289
vt 0.375000 0.367848
vt 0.625000 0.367848
vt 0.242848 0.711590
vt 0.133289 0.711590
vt 0.133289 0.750000
vt 0.625000 0.866819
vt 0.375000 0.866819
vt 0.375000 0.882152
vt 0.757152 0.711590
vt 0.741819 0.711590
vt 0.741819 0.750000
vt 0.632086 0.711590
vt 0.632086 0.750000
vt 0.375000 0.757086
vt 0.375000 0.383181
vt 0.625000 0.383181
vt 0.625000 0.750000
vt 0.367914 0.711590
vt 0.258181 0.711590
vt 0.258181 0.750000
vt 0.625000 0.250000
vt 0.625000 0.882152
vt 0.757152 0.750000
vt 0.866711 0.500000
vt 0.757152 0.500000
vt 0.757152 0.548386
vt 0.367914 0.500000
vt 0.258181 0.500000
vt 0.258181 0.548386
vt 0.632086 0.500000
vt 0.625000 0.500000
vt 0.625000 0.548386
vt 0.242848 0.500000
vt 0.242848 0.548386
vt 0.741819 0.500000
vt 0.632086 0.548386
vt 0.741819 0.548386
vt 0.133289 0.500000
vt 0.133289 0.548386
vt 0.375000 0.548386
vt 0.625000 0.164180
vt 0.375000 0.164180
vt 0.875000 0.500000
vt 0.866711 0.548386
vt 0.625000 0.118410
vt 0.375000 0.118410
vt 0.757152 0.585820
vt 0.367914 0.548386
vt 0.258181 0.585820
vt 0.625000 0.585820
vt 0.632086 0.585820
vt 0.741819 0.585820
vt 0.133289 0.585820
vt 0.375000 0.585820
vt 0.875000 0.548386
vt 0.866711 0.585820
vt 0.625000 0.076821
vt 0.375000 0.076821
vt 0.757152 0.631590
vt 0.367914 0.585820
vt 0.258181 0.631590
vt 0.625000 0.631590
vt 0.242848 0.585820
vt 0.242848 0.631590
vt 0.632086 0.631590
vt 0.741819 0.631590
vt 0.133289 0.631590
vt 0.375000 0.631590
vt 0.875000 0.585820
vt 0.866711 0.631590
vt 0.625000 0.038410
vt 0.375000 0.038410
vt 0.757152 0.673179
vt 0.367914 0.631590
vt 0.258181 0.673179
vt 0.625000 0.673179
vt 0.632086 0.673179
vt 0.741819 0.673179
vt 0.133289 0.673179
vt 0.375000 0.673179
vt 0.875000 0.631590
vt 0.866711 0.673179
vt 0.625000 0.000000
vt 0.375000 0.000000
vt 0.367914 0.673179
vt 0.242848 0.673179
vt 0.875000 0.673179
vt 0.875000 0.750000
vt 0.625000 1.000000
vt 0.625000 0.258289
vt 0.242848 0.750000
vt 0.625000 0.757086
vt 0.367914 0.750000
vt 0.125000 0.711590
vt 0.125000 0.750000
vt 0.125000 0.500000
vt 0.125000 0.548386
vt 0.125000 0.585820
vt 0.125000 0.631590
vt 0.125000 0.673179
vn -0.7071 -0.7071 0.0000
vn 0.0000 -1.0000 0.0000
vn 0.0000 -0.7071 0.7071
vn 0.0000 0.7071 0.7071
vn -0.5774 0.5774 0.5773
vn -0.7071 0.7071 0.0000
vn -0.5774 0.5773 -0.5773
vn 0.7071 -0.7071 0.0000
vn 0.7071 0.7071 0.0000
vn 0.5774 0.5773 0.5773
vn 0.0000 -0.7071 -0.7071
vn 0.0000 0.7071 -0.7071
vn 0.5773 0.5774 -0.5774
vn 0.0000 1.0000 0.0000
vn 0.5773 -0.5773 0.5774
vn -0.5774 -0.5774 -0.5773
vn 0.5774 -0.5773 -0.5773
vn -0.5774 -0.5773 0.5773
s 1
f 83/1/1 82/2/2 22/3/3
f 22/4/3 23/5/4 8/6/5
f 27/7/1 25/8/6 6/9/7
f 74/10/8 84/11/9 4/12/10
f 18/13/11 19/14/12 2/15/13
f 21/16/12 9/17/12 12/18/11
f 75/19/14 81/20/14 23/21/4
f 16/22/3 13/23/4 11/24/4
f 76/25/2 77/26/2 16/27/3
f 77/26/2 79/28/2 20/29/3
f 17/30/4 13/23/4 16/22/3
f 9/17/12 15/31/12 14/32/11
f 3/33/15 4/12/10 17/30/4
f 79/28/2 74/10/8 3/33/15
f 14/32/11 15/31/12 19/14/12
f 80/34/14 78/35/14 13/36/4
f 5/37/16 6/9/7 21/16/12
f 10/38/3 11/24/4 23/5/4
f 82/2/2 76/25/2 10/39/3
f 24/40/11 12/41/11 30/42/2
f 19/43/12 15/44/12 32/45/14
f 18/46/11 1/47/17 26/48/8
f 15/44/12 9/49/12 29/50/14
f 14/51/11 18/46/11 33/52/2
f 12/41/11 14/51/11 31/53/2
f 9/49/12 21/54/12 35/55/14
f 1/47/17 2/15/13 28/56/9
f 47/57/1 37/58/6 25/8/6
f 5/59/16 24/40/11 36/60/2
f 59/61/1 49/62/6 37/58/6
f 36/60/2 30/42/2 40/63/2
f 34/64/14 32/45/14 42/65/14
f 33/52/2 26/48/8 38/66/8
f 31/53/2 33/52/2 43/67/2
f 30/42/2 31/53/2 41/68/2
f 29/50/14 35/55/14 45/69/14
f 26/48/8 28/56/9 48/70/9
f 27/71/1 36/60/2 46/72/2
f 71/73/1 61/74/6 49/62/6
f 46/72/2 40/63/2 52/75/2
f 44/76/14 42/65/14 54/77/14
f 43/67/2 38/66/8 50/78/8
f 42/65/14 39/79/14 51/80/14
f 41/68/2 43/67/2 55/81/2
f 41/68/2 53/82/2 52/75/2
f 39/79/14 45/69/14 57/83/14
f 38/66/8 48/70/9 60/84/9
f 47/85/1 46/72/2 58/86/2
f 83/87/1 73/88/6 61/74/6
f 58/86/2 52/75/2 64/89/2
f 56/90/14 54/77/14 66/91/14
f 55/81/2 50/78/8 62/92/8
f 53/82/2 55/81/2 67/93/2
f 52/75/2 53/82/2 65/94/2
f 51/80/14 57/83/14 69/95/14
f 50/78/8 60/84/9 72/96/9
f 59/97/1 58/86/2 70/98/2
f 7/99/18 8/100/5 73/88/6
f 70/98/2 64/89/2 76/25/2
f 68/101/14 66/91/14 78/35/14
f 67/93/2 62/92/8 74/10/8
f 66/91/14 63/102/14 75/19/14
f 65/94/2 67/93/2 79/28/2
f 64/89/2 65/94/2 77/26/2
f 63/102/14 69/95/14 81/20/14
f 62/92/8 72/96/9 84/11/9
f 71/103/1 70/98/2 82/2/2
f 83/1/1 22/3/3 7/104/18
f 22/4/3 8/6/5 7/105/18
f 27/7/1 6/9/7 5/37/16
f 74/10/8 4/12/10 3/33/15
f 18/13/11 2/15/13 1/47/17
f 21/16/12 12/18/11 24/106/11
f 75/19/14 23/21/4 11/107/4
f 16/22/3 11/24/4 10/38/3
f 76/25/2 16/27/3 10/39/3
f 77/26/2 20/29/3 16/27/3
f 17/30/4 16/22/3 20/108/3
f 9/17/12 14/32/11 12/18/11
f 3/33/15 17/30/4 20/108/3
f 79/28/2 3/33/15 20/29/3
f 14/32/11 19/14/12 18/13/11
f 80/34/14 13/36/4 17/109/4
f 5/37/16 21/16/12 24/106/11
f 10/38/3 23/5/4 22/4/3
f 82/2/2 10/39/3 22/3/3
f 24/40/11 30/42/2 36/60/2
f 19/43/12 32/45/14 34/64/14
f 18/46/11 26/48/8 33/52/2
f 15/44/12 29/50/14 32/45/14
f 14/51/11 33/52/2 31/53/2
f 12/41/11 31/53/2 30/42/2
f 9/49/12 35/55/14 29/50/14
f 1/47/17 28/56/9 26/48/8
f 47/57/1 25/8/6 27/7/1
f 5/59/16 36/60/2 27/71/1
f 59/61/1 37/58/6 47/57/1
f 36/60/2 40/63/2 46/72/2
f 34/64/14 42/65/14 44/76/14
f 33/52/2 38/66/8 43/67/2
f 31/53/2 43/67/2 41/68/2
f 30/42/2 41/68/2 40/63/2
f 29/50/14 45/69/14 39/79/14
f 26/48/8 48/70/9 38/66/8
f 27/71/1 46/72/2 47/85/1
f 71/73/1 49/62/6 59/61/1
f 46/72/2 52/75/2 58/86/2
f 44/76/14 54/77/14 56/90/14
f 43/67/2 50/78/8 55/81/2
f 42/65/14 51/80/14 54/77/14
f 41/68/2 55/81/2 53/82/2
f 41/68/2 52/75/2 40/63/2
f 39/79/14 57/83/14 51/80/14
f 38/66/8 60/84/9 50/78/8
f 47/85/1 58/86/2 59/97/1
f 83/87/1 61/74/6 71/73/1
f 58/86/2 64/89/2 70/98/2
f 56/90/14 66/91/14 68/101/14
f 55/81/2 62/92/8 67/93/2
f 53/82/2 67/93/2 65/94/2
f 52/75/2 65/94/2 64/89/2
f 51/80/14 69/95/14 63/102/14
f 50/78/8 72/96/9 62/92/8
f 59/97/1 70/98/2 71/103/1
f 7/99/18 73/88/6 83/87/1
f 70/98/2 76/25/2 82/2/2
f 68/101/14 78/35/14 80/34/14
f 67/93/2 74/10/8 79/28/2
f 66/91/14 75/19/14 78/35/14
f 65/94/2 79/28/2 77/26/2
f 64/89/2 77/26/2 76/25/2
f 63/102/14 81/20/14 75/19/14
f 62/92/8 84/11/9 74/10/8
f 71/103/1 82/2/2 83/1/1
f 84/11/9 80/34/14 17/109/4
f 78/35/14 75/19/14 11/107/4
f 81/20/14 73/110/6 8/111/5
f 21/54/12 6/112/7 25/113/6
f 2/15/13 19/43/12 34/64/14
f 35/55/14 25/113/6 37/114/6
f 32/45/14 29/50/14 39/79/14
f 28/56/9 34/64/14 44/76/14
f 45/69/14 37/114/6 49/115/6
f 48/70/9 44/76/14 56/90/14
f 57/83/14 49/115/6 61/116/6
f 54/77/14 51/80/14 63/102/14
f 60/84/9 56/90/14 68/101/14
f 69/95/14 61/116/6 73/110/6
f 72/96/9 68/101/14 80/34/14
f 84/11/9 17/109/4 4/12/10
f 78/35/14 11/107/4 13/36/4
f 81/20/14 8/111/5 23/21/4
f 21/54/12 25/113/6 35/55/14
f 2/15/13 34/64/14 28/56/9
f 35/55/14 37/114/6 45/69/14
f 32/45/14 39/79/14 42/65/14
f 28/56/9 44/76/14 48/70/9
f 45/69/14 49/115/6 57/83/14
f 48/70/9 56/90/14 60/84/9
f 57/83/14 61/116/6 69/95/14
f 54/77/14 63/102/14 66/91/14
f 60/84/9 68/101/14 72/96/9
f 69/95/14 73/110/6 81/20/14
f 72/96/9 80/34/14 84/11/9